<mxfile host="app.diagrams.net" modified="2023-12-04T19:18:04.727Z" agent="Mozilla/5.0 (Windows NT 10.0; Win64; x64) AppleWebKit/537.36 (KHTML, like Gecko) Chrome/119.0.0.0 Safari/537.36" version="22.1.5" etag="CKW4Alcp0nzcHlOaeq54" type="github">
  <diagram name="Page-1" id="ratCd2Dn5Z1C0jPrd76s">
    <mxGraphModel>
      <root>
        <mxCell id="0" />
        <mxCell id="1" parent="0" />
      </root>
    </mxGraphModel>
  </diagram>
</mxfile>
